<?xml version="1.0" encoding="utf-8"?>
<!-- Generator: Adobe Illustrator 13.0.1, SVG Export Plug-In . SVG Version: 6.00 Build 14948)  -->
<!DOCTYPE svg PUBLIC "-//W3C//DTD SVG 1.1//EN" "http://www.w3.org/Graphics/SVG/1.1/DTD/svg11.dtd">
<svg version="1.1" id="Layer_1" xmlns="http://www.w3.org/2000/svg" xmlns:xlink="http://www.w3.org/1999/xlink" x="0px" y="0px"
	 width="95.999px" height="95.999px" viewBox="0 0 95.999 95.999" enable-background="new 0 0 95.999 95.999" xml:space="preserve">
<g>
	<path fill="#FFFFFF" d="M86.391,0H9.612C4.312,0,0,4.312,0,9.612v76.779c0,5.297,4.312,9.608,9.612,9.608h76.779
		c5.297,0,9.608-4.312,9.608-9.608V9.612C96,4.312,91.688,0,86.391,0L86.391,0z M81.609,9.612V24H72
		c-2.883,0-4.805,1.919-4.805,4.805v9.583h14.414v14.417H67.195v33.586H52.805V52.805h-9.611V38.388h9.611v-12
		c0-9.115,7.662-16.775,16.805-16.775L81.609,9.612L81.609,9.612z"/>
</g>
</svg>
